<mxfile host="65bd71144e">
    <diagram id="bsRTGJBL4LE8mKQ-0BDM" name="Page-1">
        <mxGraphModel dx="1094" dy="523" grid="0" gridSize="10" guides="1" tooltips="1" connect="1" arrows="1" fold="1" page="0" pageScale="1" pageWidth="850" pageHeight="1100" math="0" shadow="0">
            <root>
                <mxCell id="0"/>
                <mxCell id="1" parent="0"/>
                <mxCell id="2" value="if" style="text;html=1;strokeColor=none;fillColor=none;align=center;verticalAlign=middle;whiteSpace=wrap;rounded=0;fontSize=30;" vertex="1" parent="1">
                    <mxGeometry x="245" y="128" width="60" height="30" as="geometry"/>
                </mxCell>
                <mxCell id="3" value="..." style="rounded=0;whiteSpace=wrap;html=1;" vertex="1" parent="1">
                    <mxGeometry x="293" y="128" width="157" height="31" as="geometry"/>
                </mxCell>
                <mxCell id="4" value="condition" style="text;html=1;strokeColor=none;fillColor=none;align=center;verticalAlign=middle;whiteSpace=wrap;rounded=0;fontSize=19;" vertex="1" parent="1">
                    <mxGeometry x="341.5" y="96" width="60" height="30" as="geometry"/>
                </mxCell>
                <mxCell id="5" value="" style="shape=curlyBracket;whiteSpace=wrap;html=1;rounded=1;labelPosition=left;verticalLabelPosition=middle;align=right;verticalAlign=middle;fontSize=19;" vertex="1" parent="1">
                    <mxGeometry x="466" y="121.5" width="23" height="43" as="geometry"/>
                </mxCell>
                <mxCell id="6" value="" style="shape=curlyBracket;whiteSpace=wrap;html=1;rounded=1;labelPosition=left;verticalLabelPosition=middle;align=right;verticalAlign=middle;fontSize=19;flipV=1;flipH=1;" vertex="1" parent="1">
                    <mxGeometry x="288" y="344" width="23" height="43" as="geometry"/>
                </mxCell>
                <mxCell id="7" value="..." style="rounded=0;whiteSpace=wrap;html=1;" vertex="1" parent="1">
                    <mxGeometry x="305" y="194" width="204" height="129" as="geometry"/>
                </mxCell>
                <mxCell id="8" value="if" style="text;html=1;strokeColor=none;fillColor=none;align=center;verticalAlign=middle;whiteSpace=wrap;rounded=0;fontSize=30;" vertex="1" parent="1">
                    <mxGeometry x="239.5" y="502" width="60" height="30" as="geometry"/>
                </mxCell>
                <mxCell id="9" value="..." style="rounded=0;whiteSpace=wrap;html=1;" vertex="1" parent="1">
                    <mxGeometry x="287.5" y="502" width="157" height="31" as="geometry"/>
                </mxCell>
                <mxCell id="10" value="condition" style="text;html=1;strokeColor=none;fillColor=none;align=center;verticalAlign=middle;whiteSpace=wrap;rounded=0;fontSize=19;" vertex="1" parent="1">
                    <mxGeometry x="336" y="470" width="60" height="30" as="geometry"/>
                </mxCell>
                <mxCell id="11" value="" style="shape=curlyBracket;whiteSpace=wrap;html=1;rounded=1;labelPosition=left;verticalLabelPosition=middle;align=right;verticalAlign=middle;fontSize=19;" vertex="1" parent="1">
                    <mxGeometry x="460.5" y="495.5" width="23" height="43" as="geometry"/>
                </mxCell>
                <mxCell id="12" value="" style="shape=curlyBracket;whiteSpace=wrap;html=1;rounded=1;labelPosition=left;verticalLabelPosition=middle;align=right;verticalAlign=middle;fontSize=19;flipV=1;flipH=1;" vertex="1" parent="1">
                    <mxGeometry x="282.5" y="718" width="23" height="43" as="geometry"/>
                </mxCell>
                <mxCell id="13" value="..." style="rounded=0;whiteSpace=wrap;html=1;" vertex="1" parent="1">
                    <mxGeometry x="299.5" y="568" width="204" height="129" as="geometry"/>
                </mxCell>
                <mxCell id="14" value="" style="shape=crossbar;whiteSpace=wrap;html=1;rounded=1;fontSize=19;" vertex="1" parent="1">
                    <mxGeometry x="234" y="413" width="389" height="20" as="geometry"/>
                </mxCell>
                <mxCell id="15" value="else" style="text;html=1;strokeColor=none;fillColor=none;align=center;verticalAlign=middle;whiteSpace=wrap;rounded=0;fontSize=30;" vertex="1" parent="1">
                    <mxGeometry x="311" y="724.5" width="60" height="30" as="geometry"/>
                </mxCell>
                <mxCell id="16" value="" style="shape=curlyBracket;whiteSpace=wrap;html=1;rounded=1;labelPosition=left;verticalLabelPosition=middle;align=right;verticalAlign=middle;fontSize=19;" vertex="1" parent="1">
                    <mxGeometry x="381" y="718" width="23" height="43" as="geometry"/>
                </mxCell>
                <mxCell id="17" value="..." style="rounded=0;whiteSpace=wrap;html=1;" vertex="1" parent="1">
                    <mxGeometry x="299.5" y="791" width="204" height="129" as="geometry"/>
                </mxCell>
                <mxCell id="18" value="" style="shape=curlyBracket;whiteSpace=wrap;html=1;rounded=1;labelPosition=left;verticalLabelPosition=middle;align=right;verticalAlign=middle;fontSize=19;flipV=1;flipH=1;" vertex="1" parent="1">
                    <mxGeometry x="276.5" y="947" width="23" height="43" as="geometry"/>
                </mxCell>
                <mxCell id="19" value="" style="shape=crossbar;whiteSpace=wrap;html=1;rounded=1;fontSize=19;" vertex="1" parent="1">
                    <mxGeometry x="234" y="1007" width="389" height="20" as="geometry"/>
                </mxCell>
                <mxCell id="20" value="if" style="text;html=1;strokeColor=none;fillColor=none;align=center;verticalAlign=middle;whiteSpace=wrap;rounded=0;fontSize=30;" vertex="1" parent="1">
                    <mxGeometry x="275" y="1076" width="60" height="30" as="geometry"/>
                </mxCell>
                <mxCell id="21" value="..." style="rounded=0;whiteSpace=wrap;html=1;" vertex="1" parent="1">
                    <mxGeometry x="323" y="1076" width="157" height="31" as="geometry"/>
                </mxCell>
                <mxCell id="22" value="condition" style="text;html=1;strokeColor=none;fillColor=none;align=center;verticalAlign=middle;whiteSpace=wrap;rounded=0;fontSize=19;" vertex="1" parent="1">
                    <mxGeometry x="371.5" y="1044" width="60" height="30" as="geometry"/>
                </mxCell>
                <mxCell id="23" value="" style="shape=curlyBracket;whiteSpace=wrap;html=1;rounded=1;labelPosition=left;verticalLabelPosition=middle;align=right;verticalAlign=middle;fontSize=19;" vertex="1" parent="1">
                    <mxGeometry x="496" y="1069.5" width="23" height="43" as="geometry"/>
                </mxCell>
                <mxCell id="24" value="" style="shape=curlyBracket;whiteSpace=wrap;html=1;rounded=1;labelPosition=left;verticalLabelPosition=middle;align=right;verticalAlign=middle;fontSize=19;flipV=1;flipH=1;" vertex="1" parent="1">
                    <mxGeometry x="318" y="1292" width="23" height="43" as="geometry"/>
                </mxCell>
                <mxCell id="25" value="..." style="rounded=0;whiteSpace=wrap;html=1;" vertex="1" parent="1">
                    <mxGeometry x="335" y="1142" width="204" height="129" as="geometry"/>
                </mxCell>
                <mxCell id="26" value="else if" style="text;html=1;strokeColor=none;fillColor=none;align=center;verticalAlign=middle;whiteSpace=wrap;rounded=0;fontSize=30;" vertex="1" parent="1">
                    <mxGeometry x="346.5" y="1298.5" width="105.5" height="30" as="geometry"/>
                </mxCell>
                <mxCell id="27" value="" style="shape=curlyBracket;whiteSpace=wrap;html=1;rounded=1;labelPosition=left;verticalLabelPosition=middle;align=right;verticalAlign=middle;fontSize=19;" vertex="1" parent="1">
                    <mxGeometry x="627" y="1294" width="23" height="43" as="geometry"/>
                </mxCell>
                <mxCell id="28" value="..." style="rounded=0;whiteSpace=wrap;html=1;" vertex="1" parent="1">
                    <mxGeometry x="335" y="1365" width="204" height="129" as="geometry"/>
                </mxCell>
                <mxCell id="29" value="" style="shape=curlyBracket;whiteSpace=wrap;html=1;rounded=1;labelPosition=left;verticalLabelPosition=middle;align=right;verticalAlign=middle;fontSize=19;flipV=1;flipH=1;" vertex="1" parent="1">
                    <mxGeometry x="312" y="1521" width="23" height="43" as="geometry"/>
                </mxCell>
                <mxCell id="30" value="..." style="rounded=0;whiteSpace=wrap;html=1;" vertex="1" parent="1">
                    <mxGeometry x="454" y="1300" width="157" height="31" as="geometry"/>
                </mxCell>
                <mxCell id="31" value="condition" style="text;html=1;strokeColor=none;fillColor=none;align=center;verticalAlign=middle;whiteSpace=wrap;rounded=0;fontSize=19;" vertex="1" parent="1">
                    <mxGeometry x="502.5" y="1268" width="60" height="30" as="geometry"/>
                </mxCell>
                <mxCell id="32" value="" style="shape=curlyBracket;whiteSpace=wrap;html=1;rounded=1;labelPosition=left;verticalLabelPosition=middle;align=right;verticalAlign=middle;fontSize=19;flipV=1;flipH=1;" vertex="1" parent="1">
                    <mxGeometry x="311.5" y="1521" width="23" height="43" as="geometry"/>
                </mxCell>
                <mxCell id="33" value="else" style="text;html=1;strokeColor=none;fillColor=none;align=center;verticalAlign=middle;whiteSpace=wrap;rounded=0;fontSize=30;" vertex="1" parent="1">
                    <mxGeometry x="340" y="1527.5" width="60" height="30" as="geometry"/>
                </mxCell>
                <mxCell id="34" value="" style="shape=curlyBracket;whiteSpace=wrap;html=1;rounded=1;labelPosition=left;verticalLabelPosition=middle;align=right;verticalAlign=middle;fontSize=19;" vertex="1" parent="1">
                    <mxGeometry x="410" y="1521" width="23" height="43" as="geometry"/>
                </mxCell>
                <mxCell id="35" value="..." style="rounded=0;whiteSpace=wrap;html=1;" vertex="1" parent="1">
                    <mxGeometry x="328.5" y="1594" width="204" height="129" as="geometry"/>
                </mxCell>
                <mxCell id="36" value="" style="shape=curlyBracket;whiteSpace=wrap;html=1;rounded=1;labelPosition=left;verticalLabelPosition=middle;align=right;verticalAlign=middle;fontSize=19;flipV=1;flipH=1;" vertex="1" parent="1">
                    <mxGeometry x="305.5" y="1750" width="23" height="43" as="geometry"/>
                </mxCell>
            </root>
        </mxGraphModel>
    </diagram>
</mxfile>